<?xml version="1.0" standalone="no"?>
<!DOCTYPE svg PUBLIC "-//W3C//DTD SVG 20010904//EN"
 "http://www.w3.org/TR/2001/REC-SVG-20010904/DTD/svg10.dtd">
<svg version="1.0" xmlns="http://www.w3.org/2000/svg"
 width="512.000000pt" height="512.000000pt" viewBox="0 0 512.000000 512.000000"
 preserveAspectRatio="xMidYMid meet">

<g transform="translate(0.000000,512.000000) scale(0.100000,-0.100000)"
fill="#4655D8" stroke="none">
<path d="M950 5109 c-238 -20 -457 -124 -636 -303 -183 -184 -281 -394 -304
-650 -13 -149 -13 -3043 0 -3192 41 -468 374 -840 840 -941 80 -17 173 -18
1715 -18 l1630 0 92 22 c412 98 704 389 805 801 22 87 22 95 25 1632 3 986 0
1592 -6 1675 -21 274 -116 481 -305 671 -185 185 -396 283 -656 304 -139 12
-3062 11 -3200 -1z m3260 -2363 c0 -1243 0 -1265 -20 -1330 -40 -129 -157
-244 -289 -286 -62 -20 -90 -20 -1340 -20 -1140 0 -1283 2 -1332 16 -141 41
-257 156 -301 296 -17 57 -18 118 -18 1174 l0 1114 150 0 150 0 0 150 0 150
1500 0 1500 0 0 -1264z"/>
<path d="M1510 2560 l0 -1150 1143 2 c1128 3 1142 3 1177 23 19 12 43 36 55
55 20 35 20 49 23 1128 l2 1092 -1200 0 -1200 0 0 -1150z m1097 348 l503 -503
0 -147 0 -148 -147 0 -148 0 -502 502 -503 503 0 147 0 148 147 0 148 0 502
-502z m503 207 c0 -162 -1 -295 -3 -295 -1 0 -135 133 -297 295 l-295 295 298
0 297 0 0 -295z m-1000 -710 l295 -295 -298 0 -297 0 0 295 c0 162 1 295 3
295 1 0 135 -133 297 -295z"/>
</g>
</svg>
